<?xml version="1.0" standalone="no"?><!-- Generator: Gravit.io --><svg xmlns="http://www.w3.org/2000/svg" xmlns:xlink="http://www.w3.org/1999/xlink" style="isolation:isolate" viewBox="0 0 291 271" width="291" height="271"><defs><clipPath id="_clipPath_xB0shCwi7zxZoUl9KclnxHo7tR1OK5ZI"><rect width="291" height="271"/></clipPath></defs><g clip-path="url(#_clipPath_xB0shCwi7zxZoUl9KclnxHo7tR1OK5ZI)"><linearGradient id="_lgradient_6" x1="-2.242106971836701%" y1="-2.242106971836709%" x2="100.89481373265154%" y2="100.89481373265154%"><stop offset="2.1739130434782608%" stop-opacity="1" style="stop-color:rgb(62,94,144)"/><stop offset="50.8695652173913%" stop-opacity="1" style="stop-color:rgb(201,163,202)"/><stop offset="98.69565217391305%" stop-opacity="1" style="stop-color:rgb(255,215,191)"/></linearGradient><rect x="0" y="0" width="291" height="271" transform="matrix(1,0,0,1,0,0)" fill="url(#_lgradient_6)"/><path d=" M 177.988 90.121 C 177.988 90.121 178.156 90.289 178.156 90.289 C 178.156 90.289 177.149 92.639 177.149 92.639 C 177.664 91.682 178.438 90.927 179.499 90.624 C 179.283 91.644 178.87 91.919 178.156 92.639 C 178.156 92.639 179.835 91.296 179.835 91.296 C 180.018 92.562 178.658 93.382 177.988 94.319 C 177.988 94.319 180.171 93.311 180.171 93.311 C 180.171 93.311 179.786 93.976 179.786 93.976 C 179.786 93.976 176.645 96.837 176.645 96.837 C 176.64 97.927 176.118 97.796 175.302 98.365 C 174.457 98.955 173.708 99.682 172.951 100.375 C 172.088 101.166 170.583 102.372 169.592 102.973 C 169.592 102.973 167.41 104.054 167.41 104.054 C 165.742 105.144 164.162 106.459 162.372 107.354 C 162.372 107.354 158.846 108.836 158.846 108.836 C 158.189 109.071 157.368 109.186 156.932 109.788 C 156.551 110.314 156.695 111.147 156.635 111.782 C 156.635 111.782 156.045 117.491 156.045 117.491 C 156.045 117.491 156.159 121.688 156.159 121.688 C 156.159 121.688 156.327 124.375 156.327 124.375 C 156.327 124.375 156.327 128.741 156.327 128.741 C 156.327 128.741 156.559 132.771 156.559 132.771 C 156.514 133.442 155.995 134.109 155.961 135.528 C 155.961 135.528 155.854 137.472 155.854 137.472 C 155.854 137.472 155.991 139.487 155.991 139.487 C 155.99 141.287 155.604 141.141 155.654 141.867 C 155.699 142.503 156.02 142.953 156.171 143.348 C 156.27 143.808 156.156 143.917 156.171 144.259 C 156.171 144.259 156.588 145.532 156.588 145.532 C 156.588 145.532 157.377 152.752 157.377 152.752 C 157.377 152.752 157.377 154.767 157.377 154.767 C 157.377 154.767 157.494 156.782 157.494 156.782 C 157.469 157.363 157.232 157.879 157.296 158.461 C 157.35 158.965 157.481 160.423 157.773 160.74 C 158.208 161.214 158.932 161.146 159.518 161.148 C 159.518 161.148 161.701 161.148 161.701 161.148 C 161.701 161.148 163.883 161.274 163.883 161.274 C 163.883 161.274 165.73 161.272 165.73 161.272 C 165.73 161.272 166.738 161.272 166.738 161.272 C 166.738 161.272 167.745 161.272 167.745 161.272 C 167.745 161.272 170.6 161.272 170.6 161.272 C 171.487 161.496 173.139 162.245 173.958 162.679 C 173.958 162.679 174.966 163.304 174.966 163.304 C 175.879 163.732 177.185 163.163 178 164.51 C 178.168 164.788 178.332 165.354 178.435 165.682 C 179.231 168.219 178.352 169.544 178.324 172.062 C 178.3 174.022 177.392 178.344 176.643 180.122 C 176.643 180.122 175.56 182.305 175.56 182.305 C 175.56 182.305 174.887 183.481 174.887 183.481 C 174.887 183.481 174.373 185.16 174.373 185.16 C 174.373 185.16 173.355 186.839 173.355 186.839 C 173.063 187.398 173.13 187.709 172.826 188.175 C 172.341 188.924 171.769 188.918 171.518 190.197 C 171.518 190.197 170.936 194.731 170.936 194.731 C 170.879 195.144 170.625 196.405 170.729 196.727 C 170.9 197.263 171.349 197.145 171.775 197.082 C 171.775 197.082 171.44 195.906 171.44 195.906 C 171.44 195.906 172.111 195.738 172.111 195.738 C 172.111 195.738 171.943 195.067 171.943 195.067 C 171.943 195.067 173.79 197.082 173.79 197.082 C 173.79 197.082 173.958 196.074 173.958 196.074 C 173.958 196.074 174.462 196.242 174.462 196.242 C 174.462 196.242 174.462 195.57 174.462 195.57 C 174.462 195.57 175.134 195.57 175.134 195.57 C 175.134 195.57 175.637 196.578 175.637 196.578 C 175.637 196.578 175.637 197.921 175.637 197.921 C 176.479 197.003 175.555 196.999 175.805 195.57 C 175.805 195.57 175.973 195.57 175.973 195.57 C 175.973 195.57 176.309 195.906 176.309 195.906 C 176.309 195.906 177.316 194.731 177.316 194.731 C 177.316 194.731 177.316 195.738 177.316 195.738 C 177.316 195.738 177.652 195.402 177.652 195.402 C 177.652 195.402 177.82 195.402 177.82 195.402 C 177.82 195.402 178.492 196.578 178.492 196.578 C 178.492 196.578 178.66 196.074 178.66 196.074 C 179.264 196.356 179.654 195.903 180.171 195.57 C 180.171 195.57 180.339 196.242 180.339 196.242 C 180.339 196.242 180.675 196.242 180.675 196.242 C 180.675 196.242 180.843 195.57 180.843 195.57 C 180.843 195.57 181.514 195.738 181.514 195.738 C 181.514 195.738 181.514 196.242 181.514 196.242 C 181.514 196.242 182.522 195.57 182.522 195.57 C 182.198 195.174 182.584 194.917 182.858 194.563 C 182.858 194.563 183.697 194.899 183.697 194.899 C 183.697 194.899 183.361 192.884 183.361 192.884 C 183.361 192.884 184.201 192.716 184.201 192.716 C 184.201 192.716 183.865 190.869 183.865 190.869 C 183.865 190.869 184.201 191.372 184.201 191.372 C 184.201 191.372 184.537 191.372 184.537 191.372 C 184.537 191.372 184.873 190.869 184.873 190.869 C 184.873 190.869 184.873 191.876 184.873 191.876 C 184.873 191.876 185.376 191.708 185.376 191.708 C 185.376 191.708 186.384 192.548 186.384 192.548 C 186.384 192.548 186.216 193.891 186.216 193.891 C 186.216 193.891 186.552 193.891 186.552 193.891 C 186.552 193.891 187.223 193.22 187.223 193.22 C 187.223 193.22 187.391 193.723 187.391 193.723 C 187.391 193.723 189.742 192.548 189.742 192.548 C 189.742 192.548 189.406 191.037 189.406 191.037 C 189.406 191.037 189.91 191.205 189.91 191.205 C 189.505 189.316 188.815 189.922 188.399 188.518 C 188.399 188.518 189.742 188.854 189.742 188.854 C 189.742 188.854 189.742 187.846 189.742 187.846 C 189.742 187.846 190.078 188.35 190.078 188.35 C 190.078 188.35 191.253 188.182 191.253 188.182 C 191.253 188.182 192.597 190.365 192.597 190.365 C 192.597 190.365 192.597 189.881 192.597 189.881 C 193.487 191.015 193.79 190.184 193.733 189.881 C 193.643 189.45 193.104 189.272 192.932 188.014 C 192.932 188.014 193.94 188.518 193.94 188.518 C 193.497 187.845 193.403 187.836 193.436 187.007 C 192.709 187.667 192.647 187.996 192.261 188.854 C 191.851 188.399 190.897 186.748 190.85 186.167 C 190.82 185.804 190.964 185.49 191.085 185.16 C 191.085 185.16 191.589 185.328 191.589 185.328 C 192.202 183.746 193.332 185.277 194.108 185.831 C 194.096 185.145 194.101 185.118 194.612 184.656 C 194.612 184.656 194.444 185.16 194.444 185.16 C 194.444 185.16 194.947 184.992 194.947 184.992 C 194.766 185.497 194.773 185.464 194.276 185.663 C 194.637 186.285 194.761 186.236 195.451 186.167 C 195.953 187.284 196.365 187.217 196.459 188.518 C 196.853 188.238 197.335 187.925 197.55 187.475 C 197.83 186.894 197.935 185.168 198.403 184.503 C 198.403 184.503 200.655 182.458 200.655 182.458 C 201.422 181.724 203.4 179.553 204.198 179.026 C 204.473 178.843 204.871 178.641 205.19 178.551 C 205.19 178.551 209.052 178.08 209.052 178.08 C 209.052 178.08 210.563 177.731 210.563 177.731 C 211.079 177.651 211.394 177.78 212.075 177.582 C 212.781 177.375 213.332 176.927 214.257 176.799 C 215.322 176.65 216.131 177.046 217.112 176.969 C 217.486 176.939 218.423 176.784 218.729 176.598 C 219.478 176.136 219.48 175.348 220.974 175.018 C 221.513 174.9 222.285 174.714 222.821 174.816 C 222.821 174.816 224.067 175.244 224.067 175.244 C 224.067 175.244 225.34 175.115 225.34 175.115 C 225.34 175.115 226.418 175.268 226.418 175.268 C 226.418 175.268 230.209 174.935 230.209 174.935 C 230.209 174.935 231.546 174.935 231.546 174.935 C 232.316 174.759 232.128 174.25 233.232 174.245 C 233.232 174.245 232.896 171.559 232.896 171.559 C 232.896 171.559 233.232 172.23 233.232 172.23 C 233.232 172.23 233.064 170.047 233.064 170.047 C 233.064 170.047 233.567 170.215 233.567 170.215 C 233.745 169.077 234.071 168.696 234.415 167.697 C 234.415 167.697 234.689 166.689 234.689 166.689 C 234.689 166.689 235.179 165.682 235.179 165.682 C 235.791 164.367 235.804 163.904 236.909 162.7 C 237.48 162.077 238.002 161.998 238.588 161.449 C 239.303 160.779 239.49 159.964 240.012 159.741 C 240.012 159.741 242.131 159.615 242.131 159.615 C 242.494 159.576 242.942 159.4 243.278 159.513 C 243.515 159.593 245.034 161.143 245.996 159.618 C 245.996 159.618 246.901 157.622 246.901 157.622 C 247.031 156.524 246.559 155.478 246.383 154.432 C 246.383 154.432 246.107 150.57 246.107 150.57 C 246.107 150.57 246.75 147.547 246.75 147.547 C 246.833 147.136 246.747 146.917 246.75 146.54 C 246.75 146.54 246.901 143.349 246.901 143.349 C 246.901 143.349 247.388 142.174 247.388 142.174 C 247.388 142.174 247.628 140.831 247.628 140.831 C 247.817 140.339 248.675 139.412 249.086 139.067 C 249.776 138.49 251.507 138.008 251.853 137.808 C 252.432 137.472 252.661 136.799 253.385 136.49 C 254.478 136.025 254.788 137.311 255.9 137.407 C 255.9 137.407 256.907 137.319 256.907 137.319 C 258.474 137.212 260.044 136.853 261.609 137.061 C 262.516 137.182 263.142 137.298 263.96 137.733 C 263.96 137.733 265.332 138.596 265.332 138.596 C 265.882 138.735 266.111 138.171 266.982 138.183 C 266.982 138.183 271.684 138.713 271.684 138.713 C 272.75 138.94 273.702 139.595 274.706 139.969 C 274.706 139.969 278.4 140.918 278.4 140.918 C 279.436 141.264 280.039 141.773 280.583 141.994 C 281.1 142.204 281.703 142.187 282.262 142.312 C 282.262 142.312 284.109 143.005 284.109 143.005 C 284.109 143.005 286.46 143.638 286.46 143.638 C 286.46 143.638 288.307 144.3 288.307 144.3 C 288.307 144.3 290.73 145.055 290.73 145.055 C 291.064 145.332 290.994 145.975 290.994 146.372 C 290.994 146.372 290.994 231 290.994 231 C 290.994 231 0 231 0 231 C 0 231 0 196.746 0 196.746 C 0 196.746 2.445 196.88 2.445 196.88 C 2.445 196.88 4.032 196.749 4.032 196.749 C 4.032 196.749 6.884 196.914 6.884 196.914 C 6.884 196.914 8.731 196.823 8.731 196.823 C 8.731 196.823 9.517 196.645 9.517 196.645 C 9.517 196.645 9.907 196.746 9.907 196.746 C 9.907 196.746 10.075 196.242 10.075 196.242 C 10.075 196.242 11.082 196.242 11.082 196.242 C 11.082 196.242 11.25 195.738 11.25 195.738 C 12.169 196.26 12.011 196.294 13.097 196.242 C 13.097 196.242 13.265 195.234 13.265 195.234 C 13.265 195.234 13.937 195.57 13.937 195.57 C 13.937 195.57 13.433 196.242 13.433 196.242 C 13.433 196.242 13.433 196.914 13.433 196.914 C 13.433 196.914 14.105 196.914 14.105 196.914 C 14.105 196.914 14.105 197.249 14.105 197.249 C 14.105 197.249 13.433 197.585 13.433 197.585 C 13.433 197.585 14.608 197.753 14.608 197.753 C 14.608 197.753 14.105 197.585 14.105 197.585 C 14.105 197.585 14.776 197.585 14.776 197.585 C 14.776 197.585 14.441 197.249 14.441 197.249 C 14.441 197.249 14.441 197.082 14.441 197.082 C 15.319 197.27 16.131 197.913 16.456 198.761 C 17.068 198.554 17.077 198.583 17.463 199.096 C 17.742 198.433 18.162 198.678 18.806 198.761 C 18.806 198.761 18.974 198.089 18.974 198.089 C 18.974 198.089 19.478 199.264 19.478 199.264 C 19.478 199.264 20.15 198.089 20.15 198.089 C 20.15 198.089 20.318 199.432 20.318 199.432 C 20.318 199.432 20.821 198.761 20.821 198.761 C 20.821 198.761 20.653 198.089 20.653 198.089 C 21.164 198.383 21.132 198.559 21.325 199.096 C 21.325 199.096 21.997 198.425 21.997 198.425 C 22.95 198.625 22.969 198.432 23.844 198.089 C 23.844 198.089 23.508 197.417 23.508 197.417 C 23.508 197.417 24.012 196.914 24.012 196.914 C 24.012 196.914 22.836 196.746 22.836 196.746 C 23.118 195.955 23.481 196.131 24.107 195.681 C 24.829 195.164 25.642 193.99 26.362 195.234 C 25.459 196.23 26.923 196.114 25.859 197.417 C 26.378 197.746 26.378 197.819 26.362 198.425 C 27.264 198.091 28.706 197.921 29.217 198.929 C 29.217 198.929 29.049 198.929 29.049 198.929 C 29.049 198.929 28.713 198.593 28.713 198.593 C 28.713 198.593 28.545 199.6 28.545 199.6 C 28.545 199.6 29.049 199.768 29.049 199.768 C 29.049 199.768 29.721 199.432 29.721 199.432 C 29.721 199.432 29.553 198.425 29.553 198.425 C 29.553 198.425 30.728 198.761 30.728 198.761 C 30.728 198.761 31.064 198.593 31.064 198.593 C 31.064 198.593 31.064 199.768 31.064 199.768 C 31.064 199.768 31.568 199.6 31.568 199.6 C 31.568 199.6 31.736 199.936 31.736 199.936 C 31.736 199.936 31.904 199.936 31.904 199.936 C 31.904 199.936 31.4 199.264 31.4 199.264 C 31.4 199.264 31.904 199.432 31.904 199.432 C 31.904 199.432 31.568 198.593 31.568 198.593 C 31.568 198.593 32.743 198.257 32.743 198.257 C 32.495 198.788 32.703 198.918 32.911 199.432 C 32.911 199.432 33.247 199.432 33.247 199.432 C 33.93 198.465 34.447 199.392 34.926 199.936 C 34.949 200.156 34.911 200.309 35.077 200.507 C 35.426 200.925 37.213 200.772 37.78 200.776 C 37.78 200.776 40.971 201.083 40.971 201.083 C 41.8 201.083 42.452 200.809 42.986 201.615 C 44.24 201.256 45.55 201.447 46.848 201.447 C 46.848 201.447 47.016 200.944 47.016 200.944 C 47.016 200.944 47.016 201.615 47.016 201.615 C 47.016 201.615 47.855 201.783 47.855 201.783 C 48.534 201.298 49.068 201.454 49.87 201.474 C 49.87 201.474 51.885 201.474 51.885 201.474 C 51.885 201.474 53.564 201.755 53.564 201.755 C 54.417 201.838 54.726 201.613 55.579 201.951 C 56.694 201.184 58.528 201.768 59.777 201.783 C 59.777 201.783 63.471 201.615 63.471 201.615 C 64.091 201.608 64.417 201.488 64.982 201.783 C 65.335 200.932 66.411 199.041 67.165 198.593 C 67.165 198.593 66.997 198.089 66.997 198.089 C 67.703 197.992 68.19 197.265 68.626 196.746 C 70.08 195.023 69.699 195.149 71.728 193.713 C 71.728 193.713 73.652 192.445 73.652 192.445 C 73.652 192.445 74.421 191.54 74.421 191.54 C 76.28 189.398 75.477 189.945 76.369 188.714 C 76.75 188.189 77.554 187.677 78.065 187.16 C 78.745 186.471 78.887 185.999 79.319 185.526 C 79.319 185.526 82.921 182.53 82.921 182.53 C 82.921 182.53 90.169 176.537 90.169 176.537 C 92.881 174.467 96.234 172.244 99.405 170.963 C 101.117 170.271 102.298 170.388 103.267 169.989 C 103.267 169.989 105.282 168.844 105.282 168.844 C 105.282 168.844 108.304 167.833 108.304 167.833 C 108.304 167.833 111.327 166.459 111.327 166.459 C 111.327 166.459 114.517 165.94 114.517 165.94 C 114.517 165.94 118.211 165.084 118.211 165.084 C 118.211 165.084 120.394 164.982 120.394 164.982 C 121.747 164.835 123.133 164.008 126.271 164.009 C 126.271 164.009 127.95 164.009 127.95 164.009 C 128.596 164.061 128.917 164.196 129.629 164.155 C 129.629 164.155 131.644 163.841 131.644 163.841 C 131.644 163.841 135.338 163.841 135.338 163.841 C 136.554 163.82 136.611 163.626 137.689 163.406 C 137.689 163.406 140.376 162.96 140.376 162.96 C 141.935 162.345 142.589 161.165 143.02 159.637 C 143.149 159.178 143.25 158.953 143.193 158.461 C 143.193 158.461 142.8 156.614 142.8 156.614 C 142.584 155.273 142.406 153.943 142.39 152.584 C 142.39 152.584 142.223 150.402 142.223 150.402 C 142.223 150.402 142.132 147.883 142.132 147.883 C 142.181 147.47 142.382 147.124 142.374 146.54 C 142.374 146.54 142.076 145.028 142.076 145.028 C 142.076 145.028 141.833 142.006 141.833 142.006 C 141.833 142.006 141.26 139.487 141.26 139.487 C 141.26 139.487 140.859 136.129 140.859 136.129 C 140.859 136.129 140.191 134.282 140.191 134.282 C 140.191 134.282 140.191 132.435 140.191 132.435 C 140.209 131.701 140.161 130.788 140.322 130.084 C 140.634 128.726 140.901 129.258 141.215 126.894 C 140.968 126.837 140.716 126.823 140.543 126.602 C 140.258 126.239 140.703 124.184 140.711 123.535 C 140.711 123.535 140.711 119.841 140.711 119.841 C 140.711 119.841 140.219 114.804 140.219 114.804 C 140.124 113.756 140.046 111.253 139.632 110.447 C 139.256 109.713 138.57 109.647 137.857 109.427 C 136.554 109.024 135.211 108.747 133.995 108.106 C 133.995 108.106 130.301 106.165 130.301 106.165 C 130.301 106.165 128.622 105.055 128.622 105.055 C 128.622 105.055 127.446 104.642 127.446 104.642 C 127.446 104.642 120.562 101.379 120.562 101.379 C 118.955 100.374 119.037 99.95 118.04 99.05 C 116.574 97.727 115.581 98.384 114.853 97.005 C 114.853 97.005 116.868 97.341 116.868 97.341 C 115.934 96.532 115.288 96.114 114.685 94.99 C 114.685 94.99 115.189 94.822 115.189 94.822 C 115.189 94.822 114.853 93.647 114.853 93.647 C 114.853 93.647 116.196 94.486 116.196 94.486 C 116.196 94.486 115.692 93.143 115.692 93.143 C 117.24 93.875 116.933 94.757 118.211 94.822 C 118.683 95.707 119.23 96.522 120.226 96.884 C 120.691 97.052 121.062 96.955 121.554 97.2 C 121.937 97.388 122.09 97.643 122.592 97.841 C 122.592 97.841 128.286 99.254 128.286 99.254 C 129.515 99.485 132.118 99.994 132.819 101.035 C 134.263 100.38 134.536 101.156 135.842 101.477 C 135.842 101.477 138.193 101.994 138.193 101.994 C 138.193 101.994 139.704 102.115 139.704 102.115 C 139.704 102.115 142.055 102.575 142.055 102.575 C 142.055 102.575 142.894 102.662 142.894 102.662 C 142.894 102.662 143.734 102.938 143.734 102.938 C 144.666 103.079 145.482 102.498 145.52 101.539 C 145.52 101.539 145.413 100.531 145.413 100.531 C 145.413 100.531 144.741 100.699 144.741 100.699 C 144.355 99.944 143.687 98.777 144.573 98.181 C 144.458 97.532 144.382 97.176 144.412 96.501 C 144.441 95.835 144.572 95.363 144.98 94.822 C 145.488 94.146 146.385 93.296 147.26 93.182 C 149.119 92.937 151.678 94.942 151.122 97.677 C 152.449 98.118 151.889 99.846 150.776 100.196 C 150.776 100.196 150.776 101.685 150.776 101.685 C 150.87 102.049 151.144 102.187 151.448 102.331 C 152.632 103.074 152.885 102.556 153.688 102.331 C 153.688 102.331 154.48 102.162 154.48 102.162 C 154.48 102.162 156.495 101.712 156.495 101.712 C 157.504 101.539 157.79 101.782 159.182 101.272 C 160.806 100.676 161.214 99.467 163.548 100.028 C 164.293 98.857 166.288 98.352 167.577 97.929 C 167.577 97.929 170.264 96.671 170.264 96.671 C 170.264 96.671 171.44 95.922 171.44 95.922 C 172.476 95.417 172.959 95.659 173.676 94.486 C 174.202 93.623 174.126 92.599 174.126 91.632 C 175.021 91.938 174.956 92.472 174.966 93.311 C 176.321 92.245 176.385 90.881 177.988 90.121 Z  M 115.189 94.822 C 115.189 94.822 115.356 94.99 115.356 94.99 C 115.356 94.99 115.356 94.822 115.356 94.822 C 115.356 94.822 115.189 94.822 115.189 94.822 Z  M 148.38 137.808 C 148.256 138.525 147.984 138.77 147.787 140.159 C 147.787 140.159 147.787 143.181 147.787 143.181 C 147.744 144.666 147.22 144.644 147.268 146.708 C 147.268 146.708 147.561 149.394 147.561 149.394 C 147.561 149.394 147.777 151.745 147.777 151.745 C 147.777 151.745 147.777 154.096 147.777 154.096 C 147.841 154.62 147.942 154.875 147.901 155.439 C 147.772 157.259 147.304 160.859 147.596 162.491 C 149.058 162.478 150.57 162.144 151.962 161.709 C 152.808 161.445 153.176 161.479 153.809 160.812 C 153.401 160.214 152.665 158.675 152.682 157.958 C 152.694 157.373 153.016 156.962 152.954 155.943 C 152.954 155.943 152.539 153.76 152.539 153.76 C 152.539 153.76 152.418 152.081 152.418 152.081 C 152.418 152.081 151.8 148.387 151.8 148.387 C 151.8 148.387 151.703 147.043 151.703 147.043 C 151.703 147.043 150.983 144.357 150.983 144.357 C 150.983 144.357 150.501 143.013 150.501 143.013 C 150.501 143.013 149.869 139.487 149.869 139.487 C 149.869 139.487 149.384 137.64 149.384 137.64 C 149.384 137.64 148.939 135.289 148.939 135.289 C 148.267 136.388 148.558 136.789 148.38 137.808 Z  M 290.994 139.151 C 290.994 139.151 290.826 142.51 290.826 142.51 C 290.577 141.42 289.736 139.862 290.994 139.151 Z  M 194.108 183.648 C 194.108 183.648 193.94 182.641 193.94 182.641 C 194.425 182.989 194.383 183.141 194.108 183.648 Z  M 194.276 185.16 C 194.276 185.16 194.444 185.328 194.444 185.328 C 194.444 185.328 194.444 185.16 194.444 185.16 C 194.444 185.16 194.276 185.16 194.276 185.16 Z  M 192.429 187.007 C 193.092 186.74 193.043 186.325 193.1 185.663 C 193.1 185.663 192.429 187.007 192.429 187.007 Z  M 193.436 186.671 C 193.436 186.671 193.94 187.175 193.94 187.175 C 193.94 187.175 193.436 186.671 193.436 186.671 Z  M 194.276 186.671 C 194.276 186.671 194.444 186.839 194.444 186.839 C 194.444 186.839 194.444 186.671 194.444 186.671 C 194.444 186.671 194.276 186.671 194.276 186.671 Z  M 183.697 193.22 C 183.697 193.22 183.865 193.387 183.865 193.387 C 183.865 193.387 183.865 193.22 183.865 193.22 C 183.865 193.22 183.697 193.22 183.697 193.22 Z  M 172.615 194.395 C 172.615 194.395 172.615 193.555 172.615 193.555 C 172.615 193.555 172.615 194.395 172.615 194.395 Z  M 184.705 194.059 C 184.705 194.059 184.873 194.227 184.873 194.227 C 184.873 194.227 184.873 194.059 184.873 194.059 C 184.873 194.059 184.705 194.059 184.705 194.059 Z  M 178.66 194.059 C 178.66 194.059 178.492 194.227 178.492 194.227 C 178.492 194.227 178.492 194.059 178.492 194.059 C 178.492 194.059 178.66 194.059 178.66 194.059 Z  M 184.033 194.227 C 184.033 194.227 184.033 194.899 184.033 194.899 C 184.033 194.899 184.705 194.899 184.705 194.899 C 184.705 194.899 184.705 194.227 184.705 194.227 C 184.705 194.227 184.033 194.227 184.033 194.227 Z  M 172.111 194.731 C 172.111 194.731 171.943 194.899 171.943 194.899 C 171.943 194.899 171.943 194.731 171.943 194.731 C 171.943 194.731 172.111 194.731 172.111 194.731 Z  M 173.622 194.731 C 173.622 194.731 173.454 195.906 173.454 195.906 C 173.454 195.906 173.287 194.731 173.287 194.731 C 173.287 194.731 173.622 194.731 173.622 194.731 Z  M 181.346 194.899 C 181.346 194.899 180.843 195.402 180.843 195.402 C 180.843 195.402 181.346 194.899 181.346 194.899 Z  M 177.988 195.067 C 177.988 195.067 177.82 195.234 177.82 195.234 C 177.82 195.234 177.82 195.067 177.82 195.067 C 177.82 195.067 177.988 195.067 177.988 195.067 Z  M 24.683 196.242 C 24.683 196.242 25.523 195.906 25.523 195.906 C 25.523 195.906 24.683 196.242 24.683 196.242 Z  M 24.851 197.249 C 24.851 197.249 24.683 196.242 24.683 196.242 C 24.386 196.751 24.473 196.823 24.851 197.249 Z  M 1.175 196.746 C 1.175 196.746 1.343 196.914 1.343 196.914 C 1.343 196.914 1.343 196.746 1.343 196.746 C 1.343 196.746 1.175 196.746 1.175 196.746 Z  M 9.403 196.746 C 9.403 196.746 9.571 196.914 9.571 196.914 C 9.571 196.914 9.571 196.746 9.571 196.746 C 9.571 196.746 9.403 196.746 9.403 196.746 Z  M 5.373 197.249 C 5.373 197.249 6.717 197.082 6.717 197.082 C 6.717 197.082 5.373 197.249 5.373 197.249 Z  M 2.351 197.417 C 2.351 197.417 2.519 197.585 2.519 197.585 C 2.519 197.585 2.519 197.417 2.519 197.417 C 2.519 197.417 2.351 197.417 2.351 197.417 Z  M 8.564 197.585 C 8.564 197.585 8.731 197.753 8.731 197.753 C 8.731 197.753 8.731 197.585 8.731 197.585 C 8.731 197.585 8.564 197.585 8.564 197.585 Z  M 3.358 197.921 C 3.358 197.921 3.526 198.089 3.526 198.089 C 3.526 198.089 3.526 197.921 3.526 197.921 C 3.526 197.921 3.358 197.921 3.358 197.921 Z  M 22.668 198.089 C 22.668 198.089 21.997 197.753 21.997 197.753 C 21.997 197.753 22.668 198.089 22.668 198.089 Z  M 4.534 198.089 C 4.534 198.089 4.702 198.257 4.702 198.257 C 4.702 198.257 4.702 198.089 4.702 198.089 C 4.702 198.089 4.534 198.089 4.534 198.089 Z  M 6.213 198.089 C 6.213 198.089 6.381 198.257 6.381 198.257 C 6.381 198.257 6.381 198.089 6.381 198.089 C 6.381 198.089 6.213 198.089 6.213 198.089 Z  M 7.052 198.089 C 7.052 198.089 7.22 198.257 7.22 198.257 C 7.22 198.257 7.22 198.089 7.22 198.089 C 7.22 198.089 7.052 198.089 7.052 198.089 Z  M 8.06 198.089 C 8.06 198.089 8.228 198.257 8.228 198.257 C 8.228 198.257 8.228 198.089 8.228 198.089 C 8.228 198.089 8.06 198.089 8.06 198.089 Z  M 30.392 198.089 C 30.392 198.089 30.224 198.257 30.224 198.257 C 30.224 198.257 30.224 198.089 30.224 198.089 C 30.224 198.089 30.392 198.089 30.392 198.089 Z  M 4.869 198.425 C 4.869 198.425 5.037 198.593 5.037 198.593 C 5.037 198.593 5.037 198.425 5.037 198.425 C 5.037 198.425 4.869 198.425 4.869 198.425 Z  M 33.079 198.257 C 33.079 198.257 32.911 198.425 32.911 198.425 C 32.911 198.425 32.911 198.257 32.911 198.257 C 32.911 198.257 33.079 198.257 33.079 198.257 Z  M 5.205 198.593 C 5.205 198.593 5.373 198.761 5.373 198.761 C 5.373 198.761 5.373 198.593 5.373 198.593 C 5.373 198.593 5.205 198.593 5.205 198.593 Z  M 1.343 198.761 C 1.343 198.761 1.511 198.929 1.511 198.929 C 1.511 198.929 1.511 198.761 1.511 198.761 C 1.511 198.761 1.343 198.761 1.343 198.761 Z  M 5.205 199.264 C 5.205 199.264 5.373 199.432 5.373 199.432 C 5.373 199.432 5.373 199.264 5.373 199.264 C 5.373 199.264 5.205 199.264 5.205 199.264 Z  M 17.295 199.432 C 17.295 199.432 17.463 199.6 17.463 199.6 C 17.463 199.6 17.463 199.432 17.463 199.432 C 17.463 199.432 17.295 199.432 17.295 199.432 Z  M 29.721 199.432 C 29.721 199.432 29.889 199.6 29.889 199.6 C 29.889 199.6 29.889 199.432 29.889 199.432 C 29.889 199.432 29.721 199.432 29.721 199.432 Z  M 32.743 199.6 C 32.743 199.6 32.911 199.768 32.911 199.768 C 32.911 199.768 32.911 199.6 32.911 199.6 C 32.911 199.6 32.743 199.6 32.743 199.6 Z  M 33.583 199.6 C 33.583 199.6 33.751 199.768 33.751 199.768 C 33.751 199.768 33.751 199.6 33.751 199.6 C 33.751 199.6 33.583 199.6 33.583 199.6 Z  M 18.135 199.768 C 18.135 199.768 18.303 199.936 18.303 199.936 C 18.303 199.936 18.303 199.768 18.303 199.768 C 18.303 199.768 18.135 199.768 18.135 199.768 Z  M 28.377 199.768 C 28.377 199.768 28.377 200.272 28.377 200.272 C 28.377 200.272 28.881 199.936 28.881 199.936 C 28.881 199.936 28.377 199.768 28.377 199.768 Z  M 29.553 199.768 C 29.553 199.768 29.721 199.936 29.721 199.936 C 29.721 199.936 29.721 199.768 29.721 199.768 C 29.721 199.768 29.553 199.768 29.553 199.768 Z  M 17.127 199.936 C 17.127 199.936 17.295 200.104 17.295 200.104 C 17.295 200.104 17.295 199.936 17.295 199.936 C 17.295 199.936 17.127 199.936 17.127 199.936 Z  M 34.422 199.936 C 34.422 199.936 34.59 200.104 34.59 200.104 C 34.59 200.104 34.59 199.936 34.59 199.936 C 34.59 199.936 34.422 199.936 34.422 199.936 Z  M 40.971 200.104 C 40.971 200.104 40.971 200.44 40.971 200.44 C 40.971 200.44 40.299 200.44 40.299 200.44 C 40.299 200.44 40.299 200.104 40.299 200.104 C 40.299 200.104 40.971 200.104 40.971 200.104 Z  M 33.918 200.776 C 33.918 200.776 34.59 200.44 34.59 200.44 C 34.59 200.44 33.918 200.776 33.918 200.776 Z  M 17.463 200.776 C 17.463 200.776 17.631 200.944 17.631 200.944 C 17.631 200.944 17.631 200.776 17.631 200.776 C 17.631 200.776 17.463 200.776 17.463 200.776 Z  M 40.299 200.608 C 40.299 200.608 40.131 200.776 40.131 200.776 C 40.131 200.776 40.131 200.608 40.131 200.608 C 40.131 200.608 40.299 200.608 40.299 200.608 Z  M 33.415 201.111 C 33.415 201.111 33.583 201.279 33.583 201.279 C 33.583 201.279 33.583 201.111 33.583 201.111 C 33.583 201.111 33.415 201.111 33.415 201.111 Z  M 36.269 202.119 C 36.269 202.119 36.437 202.287 36.437 202.287 C 36.437 202.287 36.437 202.119 36.437 202.119 C 36.437 202.119 36.269 202.119 36.269 202.119 Z  M 37.277 202.119 C 37.277 202.119 37.445 202.287 37.445 202.287 C 37.445 202.287 37.445 202.119 37.445 202.119 C 37.445 202.119 37.277 202.119 37.277 202.119 Z  M 52.053 202.455 C 52.053 202.455 52.221 202.623 52.221 202.623 C 52.221 202.623 52.221 202.455 52.221 202.455 C 52.221 202.455 52.053 202.455 52.053 202.455 Z " fill="rgb(0,0,0)"/><rect x="0" y="222" width="291" height="49" transform="matrix(1,0,0,1,0,0)" fill="rgb(0,0,0)"/></g></svg>